<svg width="45" height="45" viewBox="0 0 45 45" fill="none" xmlns="http://www.w3.org/2000/svg">
<g id="maki:arrow">
<path id="Vector" d="M24.879 6.87897C25.4416 6.31656 26.2045 6.00061 27 6.00061C27.7955 6.00061 28.5584 6.31656 29.121 6.87897L42.621 20.379C43.1834 20.9416 43.4994 21.7045 43.4994 22.5C43.4994 23.2955 43.1834 24.0584 42.621 24.621L29.121 38.121C28.5552 38.6674 27.7974 38.9698 27.0108 38.963C26.2242 38.9562 25.4718 38.6406 24.9155 38.0844C24.3593 37.5282 24.0438 36.7758 24.037 35.9892C24.0301 35.2026 24.3325 34.4448 24.879 33.879L33 25.5H4.5C3.70435 25.5 2.94129 25.1839 2.37868 24.6213C1.81607 24.0587 1.5 23.2956 1.5 22.5C1.5 21.7043 1.81607 20.9413 2.37868 20.3786C2.94129 19.816 3.70435 19.5 4.5 19.5H33L24.879 11.121C24.3166 10.5584 24.0006 9.79546 24.0006 8.99997C24.0006 8.20448 24.3166 7.44155 24.879 6.87897Z" fill="white"/>
</g>
</svg>
