<svg width="40" height="40" viewBox="0 0 40 40" fill="none" xmlns="http://www.w3.org/2000/svg">
<g id="material-symbols:replay-rounded">
<path id="Vector" d="M20 36.6667C17.9167 36.6667 15.965 36.2705 14.145 35.4783C12.325 34.6861 10.7417 33.6172 9.395 32.2717C8.04833 30.9239 6.97944 29.3406 6.18833 27.5217C5.39722 25.7028 5.00111 23.7511 5 21.6667C5 21.1944 5.16 20.7983 5.48 20.4783C5.8 20.1583 6.19556 19.9989 6.66667 20C7.13889 20 7.535 20.16 7.855 20.48C8.175 20.8 8.33444 21.1956 8.33333 21.6667C8.33333 24.9167 9.46556 27.6739 11.73 29.9383C13.9944 32.2028 16.7511 33.3344 20 33.3333C23.25 33.3333 26.0072 32.2011 28.2717 29.9367C30.5361 27.6722 31.6678 24.9156 31.6667 21.6667C31.6667 18.4167 30.5344 15.6594 28.27 13.395C26.0056 11.1305 23.2489 9.99888 20 9.99999H19.75L21.1667 11.4167C21.5 11.75 21.66 12.1389 21.6467 12.5833C21.6333 13.0278 21.4733 13.4167 21.1667 13.75C20.8333 14.0833 20.4378 14.2572 19.98 14.2717C19.5222 14.2861 19.1261 14.1261 18.7917 13.7917L14.5 9.49999C14.1667 9.16666 14 8.77777 14 8.33333C14 7.88888 14.1667 7.5 14.5 7.16666L18.7917 2.875C19.125 2.54166 19.5211 2.38166 19.98 2.395C20.4389 2.40833 20.8344 2.58222 21.1667 2.91666C21.4722 3.25 21.6322 3.63888 21.6467 4.08333C21.6611 4.52777 21.5011 4.91666 21.1667 5.25L19.75 6.66666H20C22.0833 6.66666 24.035 7.06277 25.855 7.85499C27.675 8.64722 29.2583 9.71666 30.605 11.0633C31.9517 12.41 33.0211 13.9933 33.8133 15.8133C34.6056 17.6333 35.0011 19.5844 35 21.6667C35 23.75 34.6039 25.7017 33.8117 27.5217C33.0194 29.3417 31.9506 30.925 30.605 32.2717C29.2572 33.6183 27.6739 34.6878 25.855 35.48C24.0361 36.2722 22.0844 36.6678 20 36.6667Z" fill="black"></path>
</g>
</svg>
